<svg xmlns="http://www.w3.org/2000/svg" viewBox="0 0 512 512" width="56" height="56" fill="#9333ea">
  <path d="M256 48C141.13 48 48 141.13 48 256s93.13 208 208 208 208-93.13 208-208S370.87 48 256 48ZM98.58 154.32l82.9-48.84a4 4 0 0 1 6 3.46v66.24a4 4 0 0 1-2 3.46l-82.9 48.84a4 4 0 0 1-6-3.46v-66.24a4 4 0 0 1 2-3.46Zm236.34 253.51L256 448V276l78.92-46.52 78.9 45.55a4 4 0 0 1 2 3.46v91.1a4 4 0 0 1-2 3.46ZM416 240l-80-46.19V103.73a4 4 0 0 1 6-3.46l82.9 48.83a4 4 0 0 1 2 3.46v79.56a4 4 0 0 1-6 3.46ZM248 64v84.59l-80 46.18v92.36
a4 4 0 0 1-6 3.46l-82.9-48.83a4 4 0 0 1-2-3.46V103.73a4 4 0 0 1 6-3.46l82.9 48.83A4 4 0 0 1 248 192V64Z"/>
</svg>